<svg width="41" height="41" viewBox="0 0 41 41" fill="none" xmlns="http://www.w3.org/2000/svg">
<path d="M28.6807 26.4665C29.4109 28.3712 29.1728 30.149 27.9664 31.7998C26.7601 33.4506 25.0617 34.276 22.8712 34.276C21.8236 34.276 20.8318 34.0061 19.896 33.4665C18.9588 32.9268 18.268 32.2125 17.8236 31.3236C15.1887 31.7045 13.0064 31.0296 11.2769 29.2988C9.54611 27.5693 8.83945 25.3553 9.15691 22.6569C8.20453 22.1173 7.47437 21.3795 6.96643 20.4436C6.4585 19.5065 6.20453 18.4347 6.20453 17.2284C6.20453 15.2919 7.0858 13.728 8.84834 12.5369C10.6096 11.3471 12.3315 11.1014 14.014 11.7998L16.9664 13.0379C17.6013 12.0538 18.4426 11.2519 19.4902 10.6322C20.5379 10.0138 21.6648 9.67281 22.8712 9.60932V5.70456H25.7283V9.99027C26.9029 10.3395 27.8712 10.8868 28.6331 11.6322C29.395 12.3788 30.0458 13.4188 30.5855 14.7522H34.7759V17.6093H30.8712C30.8077 18.8157 30.4826 19.9426 29.8959 20.9903C29.308 22.0379 28.522 22.8792 27.5379 23.5141L28.6807 26.4665ZM16.8712 27.6093C16.8712 26.7522 16.9429 25.9192 17.0864 25.1103C17.2287 24.3001 17.4426 23.5141 17.7283 22.7522C16.9982 23.1014 16.2121 23.3471 15.3702 23.4893C14.5296 23.6328 13.6966 23.6728 12.8712 23.6093C12.8712 24.8474 13.228 25.8239 13.9417 26.5388C14.6566 27.2525 15.6331 27.6093 16.8712 27.6093ZM13.3474 19.7998C14.3633 19.7998 15.2604 19.6728 16.0388 19.4188C16.816 19.1649 17.8236 18.6569 19.0617 17.895L13.3474 15.5141C12.4267 15.1331 11.6414 15.1407 10.9912 15.5369C10.3398 15.9344 10.0141 16.5617 10.0141 17.4188C10.0141 18.2442 10.2839 18.8474 10.8236 19.2284C11.3633 19.6093 12.2045 19.7998 13.3474 19.7998ZM22.8712 30.4665C23.6648 30.4665 24.3074 30.1884 24.7988 29.6322C25.2915 29.0772 25.4109 28.4982 25.1569 27.895L22.5855 21.4188C21.9823 22.4347 21.5144 23.4506 21.1817 24.4665C20.8477 25.4823 20.6807 26.403 20.6807 27.2284C20.6807 28.276 20.8636 29.0772 21.2293 29.6322C21.5937 30.1884 22.141 30.4665 22.8712 30.4665ZM26.014 19.895C26.3315 19.5776 26.5855 19.1566 26.7759 18.6322C26.9664 18.109 27.0617 17.5617 27.0617 16.9903C27.0617 15.9744 26.7283 15.1173 26.0617 14.4188C25.395 13.7204 24.5696 13.3712 23.5855 13.3712C23.014 13.3712 22.4744 13.4665 21.9664 13.6569C21.4585 13.8474 21.0299 14.1173 20.6807 14.4665L24.395 16.1807L26.014 19.895Z" fill="#BFB2FF"/>
<rect x="1.25" y="0.75" width="39" height="39" rx="3.5" stroke="#2C2C2C"/>
</svg>
